<svg xmlns="http://www.w3.org/2000/svg" width="18" height="19" viewBox="0 0 18 19" fill="none">
  <path d="M7.6875 17.6699C8.41237 17.6699 9 17.0823 9 16.3574C9 15.6325 8.41237 15.0449 7.6875 15.0449C6.96263 15.0449 6.375 15.6325 6.375 16.3574C6.375 17.0823 6.96263 17.6699 7.6875 17.6699Z" fill="#052F5F"/>
  <path d="M14.0625 17.6699C14.7874 17.6699 15.375 17.0823 15.375 16.3574C15.375 15.6325 14.7874 15.0449 14.0625 15.0449C13.3376 15.0449 12.75 15.6325 12.75 16.3574C12.75 17.0823 13.3376 17.6699 14.0625 17.6699Z" fill="#052F5F"/>
  <path fill-rule="evenodd" clip-rule="evenodd" d="M1.25092 2.62898C1.48068 2.28433 1.94634 2.1912 2.29098 2.42096L5.66598 4.67096C5.82586 4.77755 5.93872 4.94142 5.98131 5.12879L7.72363 12.795H14.0638L15.4976 7.92H9.37496C8.96074 7.92 8.62496 7.58422 8.62496 7.17C8.62496 6.75579 8.96074 6.42 9.37496 6.42H16.5C16.7363 6.42 16.9589 6.53143 17.1005 6.72068C17.2421 6.90993 17.2862 7.15487 17.2195 7.38163L15.3445 13.7566C15.2506 14.0758 14.9577 14.295 14.625 14.295H7.12496C6.77478 14.295 6.47121 14.0527 6.39361 13.7112L4.58493 5.75304L1.45893 3.66904C1.11429 3.43927 1.02116 2.97362 1.25092 2.62898Z" fill="#052F5F"/>
  <path fill-rule="evenodd" clip-rule="evenodd" d="M8.625 10.5449C8.625 10.1307 8.96079 9.79492 9.375 9.79492H15.375C15.7892 9.79492 16.125 10.1307 16.125 10.5449C16.125 10.9591 15.7892 11.2949 15.375 11.2949H9.375C8.96079 11.2949 8.625 10.9591 8.625 10.5449Z" fill="#052F5F"/>
</svg>