<svg xmlns="http://www.w3.org/2000/svg" width="16" height="17" viewBox="0 0 16 17" fill="none">
<path fill-rule="evenodd" clip-rule="evenodd" d="M10.6439 11.439C10.9786 11.1043 11.5213 11.1043 11.8561 11.439L14.8561 14.439C15.1908 14.7738 15.1908 15.3165 14.8561 15.6512C14.5213 15.986 13.9786 15.986 13.6439 15.6512L10.6439 12.6512C10.3091 12.3165 10.3091 11.7738 10.6439 11.439Z" fill="#052F5F"/>
<path fill-rule="evenodd" clip-rule="evenodd" d="M7.49996 4.40227C5.35 4.40227 3.60711 6.14517 3.60711 8.29513C3.60711 10.4451 5.35 12.188 7.49996 12.188C9.64993 12.188 11.3928 10.4451 11.3928 8.29513C11.3928 6.14517 9.64993 4.40227 7.49996 4.40227ZM1.89282 8.29513C1.89282 5.19839 4.40323 2.68799 7.49996 2.68799C10.5967 2.68799 13.1071 5.19839 13.1071 8.29513C13.1071 11.3919 10.5967 13.9023 7.49996 13.9023C4.40323 13.9023 1.89282 11.3919 1.89282 8.29513Z" fill="#052F5F"/>
</svg>